<?xml version="1.0" encoding="utf-8" standalone="no"?>
<!DOCTYPE svg PUBLIC "-//W3C//DTD SVG 1.1//EN"
  "http://www.w3.org/Graphics/SVG/1.1/DTD/svg11.dtd">
<svg height="118.262219pt" version="1.1" viewBox="0 0 206.072344 118.262219" width="206.072344pt" xmlns="http://www.w3.org/2000/svg" xmlns:xlink="http://www.w3.org/1999/xlink">
 <metadata>
  <rdf:RDF xmlns:cc="http://creativecommons.org/ns#" xmlns:dc="http://purl.org/dc/elements/1.1/" xmlns:rdf="http://www.w3.org/1999/02/22-rdf-syntax-ns#">
   <cc:Work>
    <dc:type rdf:resource="http://purl.org/dc/dcmitype/StillImage"/>
    <dc:date>2026-08-04T23:28:07.930077</dc:date>
    <dc:format>image/svg+xml</dc:format>
    <dc:creator>
     <cc:Agent>
      <dc:title>Matplotlib v3.4.3, https://matplotlib.org/</dc:title>
     </cc:Agent>
    </dc:creator>
   </cc:Work>
  </rdf:RDF>
 </metadata>
 <defs>
  <style type="text/css">*{stroke-linecap:butt;stroke-linejoin:round;}</style>
 </defs>
 <g id="figure_1">
  <g id="patch_1">
   <path d="M 0 118.262219 
L 206.072344 118.262219 
L 206.072344 0 
L 0 0 
z
" style="fill:none;opacity:0;"/>
  </g>
  <g id="axes_1">
   <g id="patch_2">
    <path d="M 31.612344 87.783 
L 198.872344 87.783 
L 198.872344 7.2 
L 31.612344 7.2 
z
" style="fill:none;"/>
   </g>
   <g id="matplotlib.axis_1">
    <g id="xtick_1">
     <g id="line2d_1">
      <defs>
       <path d="M 0 0 
L 0 4 
" id="m723be88835" style="stroke:#000000;stroke-width:0.6;"/>
      </defs>
      <g>
       <use style="stroke:#000000;stroke-width:0.6;" x="50.911575" xlink:href="#m723be88835" y="87.783"/>
      </g>
     </g>
     <g id="text_1">
      <!-- 0 -->
      <g transform="translate(48.965793 98.886437)scale(0.07 -0.07)">
       <defs>
        <path d="M 3245 2182 
C 3245 3757 2746 4538 1760 4538 
C 781 4538 275 3744 275 2221 
C 275 691 787 -96 1760 -96 
C 2720 -96 3245 691 3245 2182 
z
M 2669 2234 
C 2669 947 2374 371 1747 371 
C 1152 371 851 973 851 2214 
C 851 3456 1152 4038 1760 4038 
C 2368 4038 2669 3450 2669 2234 
z
" id="TeXGyreHeros-Regular-30" transform="scale(0.015625)"/>
       </defs>
       <use xlink:href="#TeXGyreHeros-Regular-30"/>
      </g>
     </g>
    </g>
    <g id="xtick_2">
     <g id="line2d_2">
      <g>
       <use style="stroke:#000000;stroke-width:0.6;" x="77.190484" xlink:href="#m723be88835" y="87.783"/>
      </g>
     </g>
     <g id="text_2">
      <!-- 2 -->
      <g transform="translate(75.244702 98.886437)scale(0.07 -0.07)">
       <defs>
        <path d="M 3270 3206 
C 3270 3974 2675 4538 1818 4538 
C 890 4538 352 4064 320 2963 
L 883 2963 
C 928 3725 1242 4045 1798 4045 
C 2310 4045 2694 3680 2694 3194 
C 2694 2835 2483 2528 2080 2298 
L 1491 1965 
C 544 1427 269 998 218 0 
L 3238 0 
L 3238 557 
L 851 557 
C 909 928 1114 1165 1670 1491 
L 2310 1837 
C 2944 2176 3270 2650 3270 3206 
z
" id="TeXGyreHeros-Regular-32" transform="scale(0.015625)"/>
       </defs>
       <use xlink:href="#TeXGyreHeros-Regular-32"/>
      </g>
     </g>
    </g>
    <g id="xtick_3">
     <g id="line2d_3">
      <g>
       <use style="stroke:#000000;stroke-width:0.6;" x="103.469393" xlink:href="#m723be88835" y="87.783"/>
      </g>
     </g>
     <g id="text_3">
      <!-- 4 -->
      <g transform="translate(101.523611 98.886437)scale(0.07 -0.07)">
       <defs>
        <path d="M 3328 1088 
L 3328 1594 
L 2656 1594 
L 2656 4538 
L 2240 4538 
L 179 1683 
L 179 1088 
L 2093 1088 
L 2093 0 
L 2656 0 
L 2656 1088 
L 3328 1088 
z
M 2093 1594 
L 672 1594 
L 2093 3578 
L 2093 1594 
z
" id="TeXGyreHeros-Regular-34" transform="scale(0.015625)"/>
       </defs>
       <use xlink:href="#TeXGyreHeros-Regular-34"/>
      </g>
     </g>
    </g>
    <g id="xtick_4">
     <g id="line2d_4">
      <g>
       <use style="stroke:#000000;stroke-width:0.6;" x="129.748302" xlink:href="#m723be88835" y="87.783"/>
      </g>
     </g>
     <g id="text_4">
      <!-- 6 -->
      <g transform="translate(127.80252 98.886437)scale(0.07 -0.07)">
       <defs>
        <path d="M 3283 1408 
C 3283 2253 2707 2822 1894 2822 
C 1446 2822 1094 2650 851 2317 
C 858 3424 1216 4038 1862 4038 
C 2259 4038 2534 3789 2624 3354 
L 3187 3354 
C 3078 4096 2592 4538 1901 4538 
C 845 4538 275 3648 275 2067 
C 275 653 762 -96 1798 -96 
C 2662 -96 3283 518 3283 1408 
z
M 2707 1363 
C 2707 794 2323 403 1805 403 
C 1280 403 883 813 883 1395 
C 883 1958 1267 2323 1824 2323 
C 2368 2323 2707 1971 2707 1363 
z
" id="TeXGyreHeros-Regular-36" transform="scale(0.015625)"/>
       </defs>
       <use xlink:href="#TeXGyreHeros-Regular-36"/>
      </g>
     </g>
    </g>
    <g id="xtick_5">
     <g id="line2d_5">
      <g>
       <use style="stroke:#000000;stroke-width:0.6;" x="156.027211" xlink:href="#m723be88835" y="87.783"/>
      </g>
     </g>
     <g id="text_5">
      <!-- 8 -->
      <g transform="translate(154.081429 98.886437)scale(0.07 -0.07)">
       <defs>
        <path d="M 3283 1280 
C 3283 1786 3027 2138 2502 2387 
C 2970 2669 3123 2899 3123 3328 
C 3123 4038 2566 4538 1760 4538 
C 960 4538 397 4038 397 3328 
C 397 2906 550 2675 1011 2387 
C 493 2138 237 1786 237 1286 
C 237 454 864 -96 1760 -96 
C 2656 -96 3283 454 3283 1280 
z
M 2547 3315 
C 2547 2893 2234 2611 1760 2611 
C 1286 2611 973 2893 973 3322 
C 973 3757 1286 4038 1760 4038 
C 2240 4038 2547 3757 2547 3315 
z
M 2707 1274 
C 2707 736 2323 403 1747 403 
C 1197 403 813 742 813 1274 
C 813 1805 1197 2138 1760 2138 
C 2323 2138 2707 1805 2707 1274 
z
" id="TeXGyreHeros-Regular-38" transform="scale(0.015625)"/>
       </defs>
       <use xlink:href="#TeXGyreHeros-Regular-38"/>
      </g>
     </g>
    </g>
    <g id="xtick_6">
     <g id="line2d_6">
      <g>
       <use style="stroke:#000000;stroke-width:0.6;" x="182.30612" xlink:href="#m723be88835" y="87.783"/>
      </g>
     </g>
     <g id="text_6">
      <!-- 10 -->
      <g transform="translate(178.414557 98.886437)scale(0.07 -0.07)">
       <defs>
        <path d="M 2221 0 
L 2221 4538 
L 1850 4538 
C 1651 3840 1523 3744 653 3635 
L 653 3232 
L 1658 3232 
L 1658 0 
L 2221 0 
z
" id="TeXGyreHeros-Regular-31" transform="scale(0.015625)"/>
       </defs>
       <use xlink:href="#TeXGyreHeros-Regular-31"/>
       <use x="55.599991" xlink:href="#TeXGyreHeros-Regular-30"/>
      </g>
     </g>
    </g>
    <g id="text_7">
     <!--   -->
     <g transform="translate(114.269453 109.515656)scale(0.07 -0.07)">
      <defs>
       <path id="TeXGyreHeros-Regular-20" transform="scale(0.015625)"/>
      </defs>
      <use xlink:href="#TeXGyreHeros-Regular-20"/>
     </g>
    </g>
   </g>
   <g id="matplotlib.axis_2">
    <g id="ytick_1">
     <g id="line2d_7">
      <defs>
       <path d="M 0 0 
L -4 0 
" id="mee80410a3d" style="stroke:#000000;stroke-width:0.6;"/>
      </defs>
      <g>
       <use style="stroke:#000000;stroke-width:0.6;" x="31.612344" xlink:href="#mee80410a3d" y="79.037558"/>
      </g>
     </g>
     <g id="text_8">
      <!-- 0 -->
      <g transform="translate(21.720781 81.589277)scale(0.07 -0.07)">
       <use xlink:href="#TeXGyreHeros-Regular-30"/>
      </g>
     </g>
    </g>
    <g id="ytick_2">
     <g id="line2d_8">
      <g>
       <use style="stroke:#000000;stroke-width:0.6;" x="31.612344" xlink:href="#mee80410a3d" y="47.701211"/>
      </g>
     </g>
     <g id="text_9">
      <!-- 10 -->
      <g transform="translate(17.829219 50.252929)scale(0.07 -0.07)">
       <use xlink:href="#TeXGyreHeros-Regular-31"/>
       <use x="55.599991" xlink:href="#TeXGyreHeros-Regular-30"/>
      </g>
     </g>
    </g>
    <g id="ytick_3">
     <g id="line2d_9">
      <g>
       <use style="stroke:#000000;stroke-width:0.6;" x="31.612344" xlink:href="#mee80410a3d" y="16.364863"/>
      </g>
     </g>
     <g id="text_10">
      <!-- 20 -->
      <g transform="translate(17.829219 18.916582)scale(0.07 -0.07)">
       <use xlink:href="#TeXGyreHeros-Regular-32"/>
       <use x="55.599991" xlink:href="#TeXGyreHeros-Regular-30"/>
      </g>
     </g>
    </g>
    <g id="text_11">
     <!--   -->
     <g transform="translate(12.303438 48.464391)rotate(-90)scale(0.07 -0.07)">
      <use xlink:href="#TeXGyreHeros-Regular-20"/>
     </g>
    </g>
   </g>
   <g id="patch_3">
    <path d="M 31.612344 87.783 
L 31.612344 7.2 
" style="fill:none;stroke:#4c4c4c;stroke-linecap:square;stroke-linejoin:miter;stroke-width:0.6;"/>
   </g>
   <g id="patch_4">
    <path d="M 31.612344 87.783 
L 198.872344 87.783 
" style="fill:none;stroke:#4c4c4c;stroke-linecap:square;stroke-linejoin:miter;stroke-width:0.6;"/>
   </g>
   <g id="text_12">
    <!-- CAISO -->
    <g style="fill:#333333;" transform="translate(160.012957 12.480273)scale(0.05 -0.05)">
     <defs>
      <path d="M 4333 1702 
L 3718 1702 
C 3578 819 3206 410 2419 410 
C 1491 410 902 1120 902 2285 
C 902 3482 1466 4256 2368 4256 
C 3098 4256 3482 3930 3629 3219 
L 4237 3219 
C 4051 4243 3462 4781 2438 4781 
C 1024 4781 307 3642 307 2278 
C 307 915 1043 -115 2413 -115 
C 3552 -115 4192 486 4333 1702 
z
" id="TeXGyreHeros-Regular-43" transform="scale(0.015625)"/>
      <path d="M 4179 0 
L 2541 4666 
L 1773 4666 
L 109 0 
L 742 0 
L 1235 1402 
L 3034 1402 
L 3514 0 
L 4179 0 
z
M 2867 1901 
L 1382 1901 
L 2150 4026 
L 2867 1901 
z
" id="TeXGyreHeros-Regular-41" transform="scale(0.015625)"/>
      <path d="M 1235 0 
L 1235 4666 
L 640 4666 
L 640 0 
L 1235 0 
z
" id="TeXGyreHeros-Regular-49" transform="scale(0.015625)"/>
      <path d="M 3974 1280 
C 3974 1856 3616 2278 2982 2451 
L 1811 2765 
C 1248 2912 1043 3098 1043 3456 
C 1043 3930 1459 4282 2086 4282 
C 2829 4282 3251 3942 3251 3334 
L 3814 3334 
C 3814 4250 3181 4781 2106 4781 
C 1082 4781 448 4218 448 3373 
C 448 2803 749 2445 1363 2285 
L 2522 1978 
C 3110 1824 3379 1587 3379 1222 
C 3379 710 2995 410 2189 410 
C 1306 410 870 851 870 1517 
L 307 1517 
C 307 416 1050 -115 2150 -115 
C 3334 -115 3974 448 3974 1280 
z
" id="TeXGyreHeros-Regular-53" transform="scale(0.015625)"/>
      <path d="M 4749 2259 
C 4749 3763 3859 4781 2490 4781 
C 1152 4781 243 3757 243 2298 
C 243 838 1152 -115 2496 -115 
C 3866 -115 4749 890 4749 2259 
z
M 4154 2272 
C 4154 1146 3482 410 2496 410 
C 1504 410 838 1146 838 2298 
C 838 3450 1504 4256 2490 4256 
C 3501 4256 4154 3450 4154 2272 
z
" id="TeXGyreHeros-Regular-4f" transform="scale(0.015625)"/>
     </defs>
     <use xlink:href="#TeXGyreHeros-Regular-43"/>
     <use x="72.199982" xlink:href="#TeXGyreHeros-Regular-41"/>
     <use x="138.899979" xlink:href="#TeXGyreHeros-Regular-49"/>
     <use x="166.699966" xlink:href="#TeXGyreHeros-Regular-53"/>
     <use x="233.399963" xlink:href="#TeXGyreHeros-Regular-4f"/>
    </g>
   </g>
   <g id="text_13">
    <!-- ERCOT -->
    <g style="fill:#333333;" transform="translate(58.853411 22.162891)scale(0.05 -0.05)">
     <defs>
      <path d="M 3923 0 
L 3923 525 
L 1171 525 
L 1171 2125 
L 3712 2125 
L 3712 2650 
L 1171 2650 
L 1171 4141 
L 3808 4141 
L 3808 4666 
L 576 4666 
L 576 0 
L 3923 0 
z
" id="TeXGyreHeros-Regular-45" transform="scale(0.015625)"/>
      <path d="M 4346 0 
L 4346 147 
C 4122 301 4070 467 4064 1088 
C 4051 1856 3936 2086 3430 2304 
C 3955 2560 4166 2886 4166 3418 
C 4166 4224 3661 4666 2746 4666 
L 595 4666 
L 595 0 
L 1190 0 
L 1190 2010 
L 2726 2010 
C 3251 2010 3501 1754 3494 1178 
L 3488 762 
C 3482 474 3539 192 3622 0 
L 4346 0 
z
M 3546 3334 
C 3546 2784 3264 2534 2630 2534 
L 1190 2534 
L 1190 4141 
L 2630 4141 
C 3296 4141 3546 3859 3546 3334 
z
" id="TeXGyreHeros-Regular-52" transform="scale(0.015625)"/>
      <path d="M 3795 4141 
L 3795 4666 
L 134 4666 
L 134 4141 
L 1670 4141 
L 1670 0 
L 2266 0 
L 2266 4141 
L 3795 4141 
z
" id="TeXGyreHeros-Regular-54" transform="scale(0.015625)"/>
     </defs>
     <use xlink:href="#TeXGyreHeros-Regular-45"/>
     <use x="66.699997" xlink:href="#TeXGyreHeros-Regular-52"/>
     <use x="138.899979" xlink:href="#TeXGyreHeros-Regular-43"/>
     <use x="211.09996" xlink:href="#TeXGyreHeros-Regular-4f"/>
     <use x="288.899948" xlink:href="#TeXGyreHeros-Regular-54"/>
    </g>
   </g>
   <g id="text_14">
    <!-- ISO-NE -->
    <g style="fill:#aaaaaa;" transform="translate(55.911575 72.947714)scale(0.05 -0.05)">
     <defs>
      <path d="M 1818 1536 
L 1818 1997 
L 294 1997 
L 294 1536 
L 1818 1536 
z
" id="TeXGyreHeros-Regular-2d" transform="scale(0.015625)"/>
      <path d="M 4134 0 
L 4134 4666 
L 3571 4666 
L 3571 851 
L 1133 4666 
L 486 4666 
L 486 0 
L 1050 0 
L 1050 3782 
L 3462 0 
L 4134 0 
z
" id="TeXGyreHeros-Regular-4e" transform="scale(0.015625)"/>
     </defs>
     <use xlink:href="#TeXGyreHeros-Regular-49"/>
     <use x="27.799988" xlink:href="#TeXGyreHeros-Regular-53"/>
     <use x="94.499985" xlink:href="#TeXGyreHeros-Regular-4f"/>
     <use x="172.299973" xlink:href="#TeXGyreHeros-Regular-2d"/>
     <use x="205.59996" xlink:href="#TeXGyreHeros-Regular-4e"/>
     <use x="277.799942" xlink:href="#TeXGyreHeros-Regular-45"/>
    </g>
   </g>
   <g id="text_15">
    <!-- MISO -->
    <g style="fill:#333333;" transform="translate(60.07538 50.161892)scale(0.05 -0.05)">
     <defs>
      <path d="M 4870 0 
L 4870 4666 
L 4045 4666 
L 2688 602 
L 1306 4666 
L 480 4666 
L 480 0 
L 1043 0 
L 1043 3910 
L 2368 0 
L 2995 0 
L 4307 3910 
L 4307 0 
L 4870 0 
z
" id="TeXGyreHeros-Regular-4d" transform="scale(0.015625)"/>
     </defs>
     <use xlink:href="#TeXGyreHeros-Regular-4d"/>
     <use x="83.299988" xlink:href="#TeXGyreHeros-Regular-49"/>
     <use x="111.099976" xlink:href="#TeXGyreHeros-Regular-53"/>
     <use x="177.799973" xlink:href="#TeXGyreHeros-Regular-4f"/>
    </g>
   </g>
   <g id="text_16">
    <!-- NYISO -->
    <g style="fill:#aaaaaa;" transform="translate(30.351418 72.947714)scale(0.05 -0.05)">
     <defs>
      <path d="M 4230 4666 
L 3520 4666 
L 2189 2394 
L 819 4666 
L 83 4666 
L 1882 1830 
L 1882 0 
L 2477 0 
L 2477 1830 
L 4230 4666 
z
" id="TeXGyreHeros-Regular-59" transform="scale(0.015625)"/>
     </defs>
     <use xlink:href="#TeXGyreHeros-Regular-4e"/>
     <use x="72.199982" xlink:href="#TeXGyreHeros-Regular-59"/>
     <use x="138.899979" xlink:href="#TeXGyreHeros-Regular-49"/>
     <use x="166.699966" xlink:href="#TeXGyreHeros-Regular-53"/>
     <use x="233.399963" xlink:href="#TeXGyreHeros-Regular-4f"/>
    </g>
   </g>
   <g id="text_17">
    <!-- PJM -->
    <g style="fill:#333333;" transform="translate(36.911575 32.786828)scale(0.05 -0.05)">
     <defs>
      <path d="M 3949 3296 
C 3949 4173 3430 4666 2509 4666 
L 582 4666 
L 582 0 
L 1178 0 
L 1178 1978 
L 2643 1978 
C 3411 1978 3949 2522 3949 3296 
z
M 3328 3322 
C 3328 2810 2989 2502 2419 2502 
L 1178 2502 
L 1178 4141 
L 2419 4141 
C 2989 4141 3328 3834 3328 3322 
z
" id="TeXGyreHeros-Regular-50" transform="scale(0.015625)"/>
      <path d="M 2726 1197 
L 2726 4666 
L 2131 4666 
L 2131 1414 
C 2131 646 1869 384 1414 384 
C 966 384 717 685 717 1229 
L 717 1498 
L 122 1498 
L 122 1120 
C 122 365 595 -115 1408 -115 
C 2221 -115 2726 390 2726 1197 
z
" id="TeXGyreHeros-Regular-4a" transform="scale(0.015625)"/>
     </defs>
     <use xlink:href="#TeXGyreHeros-Regular-50"/>
     <use x="66.699997" xlink:href="#TeXGyreHeros-Regular-4a"/>
     <use x="116.699982" xlink:href="#TeXGyreHeros-Regular-4d"/>
    </g>
   </g>
   <g id="text_18">
    <!-- SPP -->
    <g style="fill:#aaaaaa;" transform="translate(55.911575 86.682871)scale(0.05 -0.05)">
     <use xlink:href="#TeXGyreHeros-Regular-53"/>
     <use x="66.699997" xlink:href="#TeXGyreHeros-Regular-50"/>
     <use x="133.399994" xlink:href="#TeXGyreHeros-Regular-50"/>
    </g>
   </g>
   <g id="text_19">
    <!-- NW Cities -->
    <g style="fill:#333333;" transform="translate(57.973067 37.726722)scale(0.05 -0.05)">
     <defs>
      <path d="M 5946 4666 
L 5280 4666 
L 4422 877 
L 3360 4666 
L 2720 4666 
L 1683 877 
L 806 4666 
L 141 4666 
L 1338 0 
L 1990 0 
L 3034 3834 
L 4109 0 
L 4762 0 
L 5946 4666 
z
" id="TeXGyreHeros-Regular-57" transform="scale(0.015625)"/>
      <path d="M 979 0 
L 979 3354 
L 448 3354 
L 448 0 
L 979 0 
z
M 1050 3859 
L 1050 4525 
L 384 4525 
L 384 3859 
L 1050 3859 
z
" id="TeXGyreHeros-Regular-69" transform="scale(0.015625)"/>
      <path d="M 1626 0 
L 1626 448 
C 1555 429 1472 422 1370 422 
C 1139 422 1075 486 1075 723 
L 1075 2918 
L 1626 2918 
L 1626 3354 
L 1075 3354 
L 1075 4275 
L 544 4275 
L 544 3354 
L 90 3354 
L 90 2918 
L 544 2918 
L 544 486 
C 544 147 774 -45 1190 -45 
C 1318 -45 1446 -32 1626 0 
z
" id="TeXGyreHeros-Regular-74" transform="scale(0.015625)"/>
      <path d="M 3283 1523 
C 3283 2010 3245 2317 3149 2566 
C 2931 3117 2419 3450 1792 3450 
C 858 3450 256 2758 256 1658 
C 256 557 838 -96 1779 -96 
C 2547 -96 3078 339 3213 1018 
L 2675 1018 
C 2528 576 2227 397 1798 397 
C 1242 397 826 755 813 1523 
L 3283 1523 
z
M 2714 1997 
C 2714 1997 2714 1971 2707 1958 
L 826 1958 
C 870 2554 1248 2957 1786 2957 
C 2310 2957 2714 2522 2714 1997 
z
" id="TeXGyreHeros-Regular-65" transform="scale(0.015625)"/>
      <path d="M 2938 941 
C 2938 1440 2656 1690 1990 1850 
L 1478 1971 
C 1043 2074 858 2214 858 2451 
C 858 2758 1133 2957 1568 2957 
C 1997 2957 2227 2771 2240 2419 
L 2803 2419 
C 2797 3078 2362 3450 1587 3450 
C 806 3450 301 3046 301 2426 
C 301 1901 570 1651 1363 1459 
L 1862 1338 
C 2234 1248 2381 1139 2381 896 
C 2381 582 2067 397 1600 397 
C 1120 397 851 512 781 1024 
L 218 1024 
C 243 250 678 -96 1555 -96 
C 2400 -96 2938 294 2938 941 
z
" id="TeXGyreHeros-Regular-73" transform="scale(0.015625)"/>
     </defs>
     <use xlink:href="#TeXGyreHeros-Regular-4e"/>
     <use x="72.199982" xlink:href="#TeXGyreHeros-Regular-57"/>
     <use x="166.599976" xlink:href="#TeXGyreHeros-Regular-20"/>
     <use x="194.399963" xlink:href="#TeXGyreHeros-Regular-43"/>
     <use x="266.599945" xlink:href="#TeXGyreHeros-Regular-69"/>
     <use x="288.799942" xlink:href="#TeXGyreHeros-Regular-74"/>
     <use x="316.59993" xlink:href="#TeXGyreHeros-Regular-69"/>
     <use x="338.799927" xlink:href="#TeXGyreHeros-Regular-65"/>
     <use x="394.399918" xlink:href="#TeXGyreHeros-Regular-73"/>
    </g>
   </g>
   <g id="text_20">
    <!-- SE-E Cities -->
    <g style="fill:#333333;" transform="translate(55.97587 70.112829)scale(0.05 -0.05)">
     <use xlink:href="#TeXGyreHeros-Regular-53"/>
     <use x="66.699997" xlink:href="#TeXGyreHeros-Regular-45"/>
     <use x="133.399994" xlink:href="#TeXGyreHeros-Regular-2d"/>
     <use x="166.699982" xlink:href="#TeXGyreHeros-Regular-45"/>
     <use x="233.399979" xlink:href="#TeXGyreHeros-Regular-20"/>
     <use x="261.199966" xlink:href="#TeXGyreHeros-Regular-43"/>
     <use x="333.399948" xlink:href="#TeXGyreHeros-Regular-69"/>
     <use x="355.599945" xlink:href="#TeXGyreHeros-Regular-74"/>
     <use x="383.399933" xlink:href="#TeXGyreHeros-Regular-69"/>
     <use x="405.59993" xlink:href="#TeXGyreHeros-Regular-65"/>
     <use x="461.199921" xlink:href="#TeXGyreHeros-Regular-73"/>
    </g>
   </g>
   <g id="text_21">
    <!-- FL Cities -->
    <g style="fill:#333333;" transform="translate(26.213635 86.407424)scale(0.05 -0.05)">
     <defs>
      <path d="M 3706 4141 
L 3706 4666 
L 576 4666 
L 576 0 
L 1171 0 
L 1171 2125 
L 3398 2125 
L 3398 2650 
L 1171 2650 
L 1171 4141 
L 3706 4141 
z
" id="TeXGyreHeros-Regular-46" transform="scale(0.015625)"/>
      <path d="M 3411 0 
L 3411 525 
L 1107 525 
L 1107 4666 
L 512 4666 
L 512 0 
L 3411 0 
z
" id="TeXGyreHeros-Regular-4c" transform="scale(0.015625)"/>
     </defs>
     <use xlink:href="#TeXGyreHeros-Regular-46"/>
     <use x="61.099991" xlink:href="#TeXGyreHeros-Regular-4c"/>
     <use x="116.699982" xlink:href="#TeXGyreHeros-Regular-20"/>
     <use x="144.499969" xlink:href="#TeXGyreHeros-Regular-43"/>
     <use x="216.699951" xlink:href="#TeXGyreHeros-Regular-69"/>
     <use x="238.899948" xlink:href="#TeXGyreHeros-Regular-74"/>
     <use x="266.699936" xlink:href="#TeXGyreHeros-Regular-69"/>
     <use x="288.899933" xlink:href="#TeXGyreHeros-Regular-65"/>
     <use x="344.499924" xlink:href="#TeXGyreHeros-Regular-73"/>
    </g>
   </g>
   <g id="text_22">
    <!-- SE Cities -->
    <g style="fill:#333333;" transform="translate(26.351418 53.884996)scale(0.05 -0.05)">
     <use xlink:href="#TeXGyreHeros-Regular-53"/>
     <use x="66.699997" xlink:href="#TeXGyreHeros-Regular-45"/>
     <use x="133.399994" xlink:href="#TeXGyreHeros-Regular-20"/>
     <use x="161.199982" xlink:href="#TeXGyreHeros-Regular-43"/>
     <use x="233.399963" xlink:href="#TeXGyreHeros-Regular-69"/>
     <use x="255.59996" xlink:href="#TeXGyreHeros-Regular-74"/>
     <use x="283.399948" xlink:href="#TeXGyreHeros-Regular-69"/>
     <use x="305.599945" xlink:href="#TeXGyreHeros-Regular-65"/>
     <use x="361.199936" xlink:href="#TeXGyreHeros-Regular-73"/>
    </g>
   </g>
   <g id="text_23">
    <!-- SW Cities -->
    <g style="fill:#333333;" transform="translate(59.746894 43.15981)scale(0.05 -0.05)">
     <use xlink:href="#TeXGyreHeros-Regular-53"/>
     <use x="66.699997" xlink:href="#TeXGyreHeros-Regular-57"/>
     <use x="161.099991" xlink:href="#TeXGyreHeros-Regular-20"/>
     <use x="188.899979" xlink:href="#TeXGyreHeros-Regular-43"/>
     <use x="261.09996" xlink:href="#TeXGyreHeros-Regular-69"/>
     <use x="283.299957" xlink:href="#TeXGyreHeros-Regular-74"/>
     <use x="311.099945" xlink:href="#TeXGyreHeros-Regular-69"/>
     <use x="333.299942" xlink:href="#TeXGyreHeros-Regular-65"/>
     <use x="388.899933" xlink:href="#TeXGyreHeros-Regular-73"/>
    </g>
   </g>
   <g id="text_24">
    <g id="patch_5">
     <path d="M 140.96345 86.74051 
L 193.854544 86.74051 
Q 195.229544 86.74051 195.229544 85.36551 
L 195.229544 74.027604 
Q 195.229544 72.652604 193.854544 72.652604 
L 140.96345 72.652604 
Q 139.58845 72.652604 139.58845 74.027604 
L 139.58845 85.36551 
Q 139.58845 86.74051 140.96345 86.74051 
z
" style="fill:#ffffff;opacity:0.9;stroke:#b2b2b2;stroke-linejoin:miter;stroke-width:0.4;"/>
    </g>
    <!-- Pearson = +0.508* -->
    <g transform="translate(147.992278 78.037447)scale(0.055 -0.055)">
     <defs>
      <path d="M 3424 13 
L 3424 416 
C 3366 403 3341 403 3309 403 
C 3123 403 3021 499 3021 666 
L 3021 2534 
C 3021 3130 2586 3450 1760 3450 
C 947 3450 448 3136 416 2362 
L 954 2362 
C 998 2771 1242 2957 1741 2957 
C 2221 2957 2490 2778 2490 2458 
L 2490 2317 
C 2490 2093 2355 1997 1933 1946 
C 1178 1850 1062 1824 858 1741 
C 467 1581 269 1280 269 870 
C 269 262 691 -96 1370 -96 
C 1798 -96 2214 83 2509 397 
C 2566 141 2797 -45 3059 -45 
C 3168 -45 3251 -32 3424 13 
z
M 2490 1158 
C 2490 678 2003 371 1485 371 
C 1069 371 826 518 826 883 
C 826 1235 1062 1389 1632 1472 
C 2195 1549 2310 1574 2490 1658 
L 2490 1158 
z
" id="TeXGyreHeros-Regular-61" transform="scale(0.015625)"/>
      <path d="M 2054 2886 
L 2054 3430 
C 1965 3443 1920 3450 1850 3450 
C 1504 3450 1242 3245 934 2746 
L 934 3354 
L 448 3354 
L 448 0 
L 979 0 
L 979 1741 
C 979 2496 1229 2874 2054 2886 
z
" id="TeXGyreHeros-Regular-72" transform="scale(0.015625)"/>
      <path d="M 3264 1651 
C 3264 2810 2707 3450 1741 3450 
C 800 3450 230 2803 230 1677 
C 230 550 794 -96 1747 -96 
C 2688 -96 3264 550 3264 1651 
z
M 2707 1658 
C 2707 870 2336 397 1747 397 
C 1152 397 787 864 787 1677 
C 787 2483 1152 2957 1747 2957 
C 2349 2957 2707 2490 2707 1658 
z
" id="TeXGyreHeros-Regular-6f" transform="scale(0.015625)"/>
      <path d="M 3117 0 
L 3117 2534 
C 3117 3091 2701 3450 2054 3450 
C 1555 3450 1235 3258 941 2790 
L 941 3354 
L 448 3354 
L 448 0 
L 979 0 
L 979 1850 
C 979 2534 1350 2982 1894 2982 
C 2317 2982 2586 2726 2586 2323 
L 2586 0 
L 3117 0 
z
" id="TeXGyreHeros-Regular-6e" transform="scale(0.015625)"/>
      <path d="M 3302 1965 
L 3302 2400 
L 435 2400 
L 435 1965 
L 3302 1965 
z
M 3302 800 
L 3302 1235 
L 435 1235 
L 435 800 
L 3302 800 
z
" id="TeXGyreHeros-Regular-3d" transform="scale(0.015625)"/>
      <path d="M 3302 1382 
L 3302 1818 
L 2086 1818 
L 2086 3034 
L 1651 3034 
L 1651 1818 
L 435 1818 
L 435 1382 
L 1651 1382 
L 1651 166 
L 2086 166 
L 2086 1382 
L 3302 1382 
z
" id="TeXGyreHeros-Regular-2b" transform="scale(0.015625)"/>
      <path d="M 1222 0 
L 1222 666 
L 557 666 
L 557 0 
L 1222 0 
z
" id="TeXGyreHeros-Regular-2e" transform="scale(0.015625)"/>
      <path d="M 3283 1504 
C 3283 2400 2688 2989 1818 2989 
C 1498 2989 1242 2906 979 2714 
L 1158 3885 
L 3046 3885 
L 3046 4442 
L 704 4442 
L 365 2067 
L 883 2067 
C 1146 2381 1363 2490 1715 2490 
C 2323 2490 2707 2099 2707 1427 
C 2707 774 2330 403 1715 403 
C 1222 403 922 653 787 1165 
L 224 1165 
C 410 262 922 -96 1728 -96 
C 2643 -96 3283 544 3283 1504 
z
" id="TeXGyreHeros-Regular-35" transform="scale(0.015625)"/>
      <path d="M 2195 3814 
L 2074 4192 
L 1395 3949 
L 1395 4666 
L 1024 4666 
L 1024 3949 
L 378 4192 
L 256 3814 
L 947 3622 
L 506 3053 
L 826 2822 
L 1229 3418 
L 1626 2822 
L 1952 3053 
L 1504 3622 
L 2195 3814 
z
" id="TeXGyreHeros-Regular-2a" transform="scale(0.015625)"/>
     </defs>
     <use xlink:href="#TeXGyreHeros-Regular-50"/>
     <use x="66.699997" xlink:href="#TeXGyreHeros-Regular-65"/>
     <use x="122.299988" xlink:href="#TeXGyreHeros-Regular-61"/>
     <use x="177.899979" xlink:href="#TeXGyreHeros-Regular-72"/>
     <use x="211.199966" xlink:href="#TeXGyreHeros-Regular-73"/>
     <use x="261.199951" xlink:href="#TeXGyreHeros-Regular-6f"/>
     <use x="316.799942" xlink:href="#TeXGyreHeros-Regular-6e"/>
     <use x="372.399933" xlink:href="#TeXGyreHeros-Regular-20"/>
     <use x="400.199921" xlink:href="#TeXGyreHeros-Regular-3d"/>
     <use x="458.599915" xlink:href="#TeXGyreHeros-Regular-20"/>
     <use x="486.399902" xlink:href="#TeXGyreHeros-Regular-2b"/>
     <use x="544.799896" xlink:href="#TeXGyreHeros-Regular-30"/>
     <use x="600.399887" xlink:href="#TeXGyreHeros-Regular-2e"/>
     <use x="628.199875" xlink:href="#TeXGyreHeros-Regular-35"/>
     <use x="683.799866" xlink:href="#TeXGyreHeros-Regular-30"/>
     <use x="739.399857" xlink:href="#TeXGyreHeros-Regular-38"/>
     <use x="794.999847" xlink:href="#TeXGyreHeros-Regular-2a"/>
    </g>
    <!-- Spearman = +0.584** -->
    <g transform="translate(140.96345 84.166682)scale(0.055 -0.055)">
     <defs>
      <path d="M 3347 1645 
C 3347 2771 2797 3450 1907 3450 
C 1453 3450 1088 3245 838 2848 
L 838 3354 
L 352 3354 
L 352 -1395 
L 883 -1395 
L 883 403 
C 1165 58 1478 -96 1914 -96 
C 2778 -96 3347 576 3347 1645 
z
M 2790 1658 
C 2790 896 2400 403 1818 403 
C 1254 403 883 864 883 1651 
C 883 2438 1254 2950 1818 2950 
C 2406 2950 2790 2458 2790 1658 
z
" id="TeXGyreHeros-Regular-70" transform="scale(0.015625)"/>
      <path d="M 4864 0 
L 4864 2515 
C 4864 3117 4531 3450 3904 3450 
C 3456 3450 3187 3315 2874 2938 
C 2675 3296 2406 3450 1971 3450 
C 1523 3450 1229 3283 941 2880 
L 941 3354 
L 454 3354 
L 454 0 
L 986 0 
L 986 2106 
C 986 2592 1338 2982 1773 2982 
C 2170 2982 2394 2739 2394 2310 
L 2394 0 
L 2925 0 
L 2925 2106 
C 2925 2592 3283 2982 3718 2982 
C 4109 2982 4333 2733 4333 2310 
L 4333 0 
L 4864 0 
z
" id="TeXGyreHeros-Regular-6d" transform="scale(0.015625)"/>
     </defs>
     <use xlink:href="#TeXGyreHeros-Regular-53"/>
     <use x="66.699997" xlink:href="#TeXGyreHeros-Regular-70"/>
     <use x="122.299988" xlink:href="#TeXGyreHeros-Regular-65"/>
     <use x="177.899979" xlink:href="#TeXGyreHeros-Regular-61"/>
     <use x="233.499969" xlink:href="#TeXGyreHeros-Regular-72"/>
     <use x="266.799957" xlink:href="#TeXGyreHeros-Regular-6d"/>
     <use x="350.099945" xlink:href="#TeXGyreHeros-Regular-61"/>
     <use x="405.699936" xlink:href="#TeXGyreHeros-Regular-6e"/>
     <use x="461.299927" xlink:href="#TeXGyreHeros-Regular-20"/>
     <use x="489.099915" xlink:href="#TeXGyreHeros-Regular-3d"/>
     <use x="547.499908" xlink:href="#TeXGyreHeros-Regular-20"/>
     <use x="575.299896" xlink:href="#TeXGyreHeros-Regular-2b"/>
     <use x="633.69989" xlink:href="#TeXGyreHeros-Regular-30"/>
     <use x="689.299881" xlink:href="#TeXGyreHeros-Regular-2e"/>
     <use x="717.099869" xlink:href="#TeXGyreHeros-Regular-35"/>
     <use x="772.69986" xlink:href="#TeXGyreHeros-Regular-38"/>
     <use x="828.29985" xlink:href="#TeXGyreHeros-Regular-34"/>
     <use x="883.899841" xlink:href="#TeXGyreHeros-Regular-2a"/>
     <use x="922.799835" xlink:href="#TeXGyreHeros-Regular-2a"/>
    </g>
   </g>
   <g id="line2d_10">
    <path clip-path="url(#p9c8324fa32)" d="M 44.478498 59.235111 
L 47.366818 58.281281 
L 50.255138 57.327451 
L 53.143458 56.373622 
L 56.031779 55.419792 
L 58.920099 54.465963 
L 61.808419 53.512133 
L 64.696739 52.558303 
L 67.58506 51.604474 
L 70.47338 50.650644 
L 73.3617 49.696815 
L 76.25002 48.742985 
L 79.138341 47.789155 
L 82.026661 46.835326 
L 84.914981 45.881496 
L 87.803301 44.927667 
L 90.691622 43.973837 
L 93.579942 43.020007 
L 96.468262 42.066178 
L 99.356582 41.112348 
L 102.244903 40.158519 
L 105.133223 39.204689 
L 108.021543 38.250859 
L 110.909863 37.29703 
L 113.798184 36.3432 
L 116.686504 35.389371 
L 119.574824 34.435541 
L 122.463144 33.481711 
L 125.351465 32.527882 
L 128.239785 31.574052 
L 131.128105 30.620223 
L 134.016425 29.666393 
L 136.904746 28.712563 
L 139.793066 27.758734 
L 142.681386 26.804904 
L 145.569706 25.851074 
L 148.458027 24.897245 
L 151.346347 23.943415 
L 154.234667 22.989586 
L 157.122987 22.035756 
L 160.011308 21.081926 
L 162.899628 20.128097 
L 165.787948 19.174267 
L 168.676268 18.220438 
L 171.564589 17.266608 
L 174.452909 16.312778 
L 177.341229 15.358949 
L 180.229549 14.405119 
L 183.11787 13.45129 
L 186.00619 12.49746 
" style="fill:none;stroke:#4477aa;stroke-dasharray:3.7,1.6;stroke-dashoffset:0;stroke-opacity:0.7;"/>
   </g>
   <g id="PathCollection_1">
    <defs>
     <path d="M 0 2.645751 
C 0.701661 2.645751 1.374679 2.366978 1.870829 1.870829 
C 2.366978 1.374679 2.645751 0.701661 2.645751 0 
C 2.645751 -0.701661 2.366978 -1.374679 1.870829 -1.870829 
C 1.374679 -2.366978 0.701661 -2.645751 0 -2.645751 
C -0.701661 -2.645751 -1.374679 -2.366978 -1.870829 -1.870829 
C -2.366978 -1.374679 -2.645751 -0.701661 -2.645751 0 
C -2.645751 0.701661 -2.366978 1.374679 -1.870829 1.870829 
C -1.374679 2.366978 -0.701661 2.645751 0 2.645751 
z
" id="m1d636e8205" style="stroke:#ffffff;stroke-width:0.4;"/>
    </defs>
    <g clip-path="url(#p9c8324fa32)">
     <use style="fill:#4477aa;stroke:#ffffff;stroke-width:0.4;" x="179.573113" xlink:href="#m1d636e8205" y="16.570116"/>
     <use style="fill:#4477aa;stroke:#ffffff;stroke-width:0.4;" x="54.853411" xlink:href="#m1d636e8205" y="26.252734"/>
     <use style="fill:#4477aa;stroke:#ffffff;stroke-width:0.4;" x="56.07538" xlink:href="#m1d636e8205" y="48.884158"/>
     <use style="fill:#4477aa;stroke:#ffffff;stroke-width:0.4;" x="50.911575" xlink:href="#m1d636e8205" y="31.509093"/>
     <use style="fill:#4477aa;stroke:#ffffff;stroke-width:0.4;" x="53.973067" xlink:href="#m1d636e8205" y="30.081409"/>
     <use style="fill:#4477aa;stroke:#ffffff;stroke-width:0.4;" x="51.97587" xlink:href="#m1d636e8205" y="74.202673"/>
     <use style="fill:#4477aa;stroke:#ffffff;stroke-width:0.4;" x="50.937853" xlink:href="#m1d636e8205" y="78.762112"/>
     <use style="fill:#4477aa;stroke:#ffffff;stroke-width:0.4;" x="50.911575" xlink:href="#m1d636e8205" y="46.239683"/>
     <use style="fill:#4477aa;stroke:#ffffff;stroke-width:0.4;" x="55.746894" xlink:href="#m1d636e8205" y="47.249654"/>
    </g>
   </g>
   <g id="PathCollection_2">
    <defs>
     <path d="M 0 2.645751 
C 0.701661 2.645751 1.374679 2.366978 1.870829 1.870829 
C 2.366978 1.374679 2.645751 0.701661 2.645751 0 
C 2.645751 -0.701661 2.366978 -1.374679 1.870829 -1.870829 
C 1.374679 -2.366978 0.701661 -2.645751 0 -2.645751 
C -0.701661 -2.645751 -1.374679 -2.366978 -1.870829 -1.870829 
C -2.366978 -1.374679 -2.645751 -0.701661 -2.645751 0 
C -2.645751 0.701661 -2.366978 1.374679 -1.870829 1.870829 
C -1.374679 2.366978 -0.701661 2.645751 0 2.645751 
z
" id="m0d822bdca9" style="stroke:#aaaaaa;stroke-width:1.2;"/>
    </defs>
    <g clip-path="url(#p9c8324fa32)">
     <use style="fill-opacity:0;stroke:#aaaaaa;stroke-width:1.2;" x="50.911575" xlink:href="#m0d822bdca9" y="79.037558"/>
     <use style="fill-opacity:0;stroke:#aaaaaa;stroke-width:1.2;" x="50.911575" xlink:href="#m0d822bdca9" y="79.037558"/>
     <use style="fill-opacity:0;stroke:#aaaaaa;stroke-width:1.2;" x="50.911575" xlink:href="#m0d822bdca9" y="79.037558"/>
    </g>
   </g>
  </g>
  <g id="text_25">
   <!-- Projected Loss-of-Load Hours, 2026 -->
   <g transform="translate(59.026328 109.536437)scale(0.07 -0.07)">
    <defs>
     <path d="M 979 -698 
L 979 3354 
L 448 3354 
L 448 -486 
C 448 -806 339 -947 13 -928 
L -115 -922 
L -115 -1376 
C -51 -1389 -19 -1395 64 -1395 
C 666 -1395 979 -1152 979 -698 
z
M 1050 3859 
L 1050 4525 
L 384 4525 
L 384 3859 
L 1050 3859 
z
" id="TeXGyreHeros-Regular-6a" transform="scale(0.015625)"/>
     <path d="M 3053 1152 
L 2515 1152 
C 2426 614 2150 397 1696 397 
C 1107 397 755 851 755 1645 
C 755 2483 1101 2957 1683 2957 
C 2131 2957 2413 2694 2477 2227 
L 3014 2227 
C 2950 3046 2438 3450 1690 3450 
C 787 3450 198 2758 198 1645 
C 198 563 774 -96 1683 -96 
C 2483 -96 2989 384 3053 1152 
z
" id="TeXGyreHeros-Regular-63" transform="scale(0.015625)"/>
     <path d="M 3168 0 
L 3168 4666 
L 2637 4666 
L 2637 2931 
C 2413 3270 2054 3450 1606 3450 
C 736 3450 166 2778 166 1709 
C 166 576 723 -96 1626 -96 
C 2086 -96 2406 77 2694 493 
L 2694 0 
L 3168 0 
z
M 2637 1664 
C 2637 890 2266 403 1702 403 
C 1114 403 723 896 723 1677 
C 723 2458 1114 2950 1696 2950 
C 2272 2950 2637 2438 2637 1664 
z
" id="TeXGyreHeros-Regular-64" transform="scale(0.015625)"/>
     <path d="M 1651 2918 
L 1651 3354 
L 1094 3354 
L 1094 3878 
C 1094 4102 1222 4218 1466 4218 
C 1510 4218 1530 4218 1651 4211 
L 1651 4653 
C 1530 4678 1459 4685 1350 4685 
C 858 4685 563 4403 563 3923 
L 563 3354 
L 115 3354 
L 115 2918 
L 563 2918 
L 563 0 
L 1094 0 
L 1094 2918 
L 1651 2918 
z
" id="TeXGyreHeros-Regular-66" transform="scale(0.015625)"/>
     <path d="M 4122 0 
L 4122 4666 
L 3526 4666 
L 3526 2650 
L 1126 2650 
L 1126 4666 
L 531 4666 
L 531 0 
L 1126 0 
L 1126 2125 
L 3526 2125 
L 3526 0 
L 4122 0 
z
" id="TeXGyreHeros-Regular-48" transform="scale(0.015625)"/>
     <path d="M 3085 0 
L 3085 3354 
L 2554 3354 
L 2554 1504 
C 2554 819 2195 371 1638 371 
C 1216 371 947 627 947 1030 
L 947 3354 
L 416 3354 
L 416 819 
C 416 262 832 -96 1485 -96 
C 1978 -96 2291 77 2605 518 
L 2605 0 
L 3085 0 
z
" id="TeXGyreHeros-Regular-75" transform="scale(0.015625)"/>
     <path d="M 1229 -102 
L 1229 666 
L 557 666 
L 557 0 
L 941 0 
L 941 -115 
C 941 -557 858 -685 557 -698 
L 557 -941 
C 1005 -941 1229 -653 1229 -102 
z
" id="TeXGyreHeros-Regular-2c" transform="scale(0.015625)"/>
    </defs>
    <use xlink:href="#TeXGyreHeros-Regular-50"/>
    <use x="66.699997" xlink:href="#TeXGyreHeros-Regular-72"/>
    <use x="99.999985" xlink:href="#TeXGyreHeros-Regular-6f"/>
    <use x="155.599976" xlink:href="#TeXGyreHeros-Regular-6a"/>
    <use x="177.799973" xlink:href="#TeXGyreHeros-Regular-65"/>
    <use x="233.399963" xlink:href="#TeXGyreHeros-Regular-63"/>
    <use x="283.399948" xlink:href="#TeXGyreHeros-Regular-74"/>
    <use x="311.199936" xlink:href="#TeXGyreHeros-Regular-65"/>
    <use x="366.799927" xlink:href="#TeXGyreHeros-Regular-64"/>
    <use x="422.399918" xlink:href="#TeXGyreHeros-Regular-20"/>
    <use x="450.199905" xlink:href="#TeXGyreHeros-Regular-4c"/>
    <use x="505.799896" xlink:href="#TeXGyreHeros-Regular-6f"/>
    <use x="561.399887" xlink:href="#TeXGyreHeros-Regular-73"/>
    <use x="611.399872" xlink:href="#TeXGyreHeros-Regular-73"/>
    <use x="661.399857" xlink:href="#TeXGyreHeros-Regular-2d"/>
    <use x="694.699844" xlink:href="#TeXGyreHeros-Regular-6f"/>
    <use x="750.299835" xlink:href="#TeXGyreHeros-Regular-66"/>
    <use x="778.099823" xlink:href="#TeXGyreHeros-Regular-2d"/>
    <use x="811.399811" xlink:href="#TeXGyreHeros-Regular-4c"/>
    <use x="866.999802" xlink:href="#TeXGyreHeros-Regular-6f"/>
    <use x="922.599792" xlink:href="#TeXGyreHeros-Regular-61"/>
    <use x="978.199783" xlink:href="#TeXGyreHeros-Regular-64"/>
    <use x="1033.799774" xlink:href="#TeXGyreHeros-Regular-20"/>
    <use x="1061.599762" xlink:href="#TeXGyreHeros-Regular-48"/>
    <use x="1133.799744" xlink:href="#TeXGyreHeros-Regular-6f"/>
    <use x="1189.399734" xlink:href="#TeXGyreHeros-Regular-75"/>
    <use x="1244.999725" xlink:href="#TeXGyreHeros-Regular-72"/>
    <use x="1278.299713" xlink:href="#TeXGyreHeros-Regular-73"/>
    <use x="1328.299698" xlink:href="#TeXGyreHeros-Regular-2c"/>
    <use x="1356.099686" xlink:href="#TeXGyreHeros-Regular-20"/>
    <use x="1383.899673" xlink:href="#TeXGyreHeros-Regular-32"/>
    <use x="1439.499664" xlink:href="#TeXGyreHeros-Regular-30"/>
    <use x="1495.099655" xlink:href="#TeXGyreHeros-Regular-32"/>
    <use x="1550.699646" xlink:href="#TeXGyreHeros-Regular-36"/>
   </g>
  </g>
  <g id="text_26">
   <!-- Max Price Increase (%) -->
   <g transform="translate(12.303438 83.858141)rotate(-90)scale(0.07 -0.07)">
    <defs>
     <path d="M 3027 0 
L 1869 1734 
L 2995 3354 
L 2394 3354 
L 1587 2138 
L 781 3354 
L 173 3354 
L 1293 1709 
L 109 0 
L 717 0 
L 1568 1286 
L 2406 0 
L 3027 0 
z
" id="TeXGyreHeros-Regular-78" transform="scale(0.015625)"/>
     <path d="M 1862 -1357 
C 1299 -442 986 634 986 1658 
C 986 2675 1299 3757 1862 4666 
L 1510 4666 
C 870 3827 467 2662 467 1658 
C 467 646 870 -518 1510 -1357 
L 1862 -1357 
z
" id="TeXGyreHeros-Regular-28" transform="scale(0.015625)"/>
     <path d="M 2368 3277 
C 2368 3898 1888 4384 1274 4384 
C 678 4384 186 3891 186 3290 
C 186 2688 678 2195 1280 2195 
C 1875 2195 2368 2688 2368 3277 
z
M 1926 3283 
C 1926 2931 1632 2643 1280 2643 
C 922 2643 627 2938 627 3290 
C 627 3648 922 3936 1274 3936 
C 1638 3936 1926 3648 1926 3283 
z
M 4320 4538 
L 3898 4538 
L 1370 -128 
L 1792 -128 
L 4320 4538 
z
M 5498 960 
C 5498 1574 5018 2061 4403 2061 
C 3808 2061 3315 1568 3315 973 
C 3315 371 3808 -122 4410 -122 
C 4998 -122 5498 371 5498 960 
z
M 5056 960 
C 5056 614 4762 326 4410 326 
C 4051 326 3757 614 3757 973 
C 3757 1325 4051 1613 4403 1613 
C 4768 1613 5056 1325 5056 960 
z
" id="TeXGyreHeros-Regular-25" transform="scale(0.015625)"/>
     <path d="M 1638 1651 
C 1638 2662 1235 3827 595 4666 
L 243 4666 
C 806 3750 1120 2675 1120 1651 
C 1120 634 806 -448 243 -1357 
L 595 -1357 
C 1235 -518 1638 646 1638 1651 
z
" id="TeXGyreHeros-Regular-29" transform="scale(0.015625)"/>
    </defs>
    <use xlink:href="#TeXGyreHeros-Regular-4d"/>
    <use x="83.299988" xlink:href="#TeXGyreHeros-Regular-61"/>
    <use x="138.899979" xlink:href="#TeXGyreHeros-Regular-78"/>
    <use x="188.899963" xlink:href="#TeXGyreHeros-Regular-20"/>
    <use x="216.699951" xlink:href="#TeXGyreHeros-Regular-50"/>
    <use x="283.399948" xlink:href="#TeXGyreHeros-Regular-72"/>
    <use x="316.699936" xlink:href="#TeXGyreHeros-Regular-69"/>
    <use x="338.899933" xlink:href="#TeXGyreHeros-Regular-63"/>
    <use x="388.899918" xlink:href="#TeXGyreHeros-Regular-65"/>
    <use x="444.499908" xlink:href="#TeXGyreHeros-Regular-20"/>
    <use x="472.299896" xlink:href="#TeXGyreHeros-Regular-49"/>
    <use x="500.099884" xlink:href="#TeXGyreHeros-Regular-6e"/>
    <use x="555.699875" xlink:href="#TeXGyreHeros-Regular-63"/>
    <use x="605.69986" xlink:href="#TeXGyreHeros-Regular-72"/>
    <use x="638.999847" xlink:href="#TeXGyreHeros-Regular-65"/>
    <use x="694.599838" xlink:href="#TeXGyreHeros-Regular-61"/>
    <use x="750.199829" xlink:href="#TeXGyreHeros-Regular-73"/>
    <use x="800.199814" xlink:href="#TeXGyreHeros-Regular-65"/>
    <use x="855.799805" xlink:href="#TeXGyreHeros-Regular-20"/>
    <use x="883.599792" xlink:href="#TeXGyreHeros-Regular-28"/>
    <use x="916.89978" xlink:href="#TeXGyreHeros-Regular-25"/>
    <use x="1005.799774" xlink:href="#TeXGyreHeros-Regular-29"/>
   </g>
  </g>
 </g>
 <defs>
  <clipPath id="p9c8324fa32">
   <rect height="80.583" width="167.26" x="31.612344" y="7.2"/>
  </clipPath>
 </defs>
</svg>
